<svg viewBox="0 0 63 21" fill="none" xmlns="http://www.w3.org/2000/svg"><path d="M27.311 19.901h-5.14L25.382.58h5.142L27.31 19.9zM17.846.58l-4.901 13.29-.58-2.862-1.73-8.688S10.428.58 8.198.58H.095L0 .907s2.478.504 5.377 2.208l4.466 16.787H15.2L23.378.58h-5.532zM58.28 19.9H63L58.885.58h-4.133c-1.908 0-2.373 1.44-2.373 1.44l-7.667 17.882h5.359l1.072-2.87h6.535l.602 2.87zm-5.657-6.834l2.701-7.23 1.52 7.23h-4.22zm-7.509-7.84l.734-4.15S43.584.235 41.224.235c-2.55 0-8.609 1.09-8.609 6.396 0 4.992 7.11 5.054 7.11 7.675 0 2.622-6.378 2.153-8.482.5l-.764 4.338s2.295 1.09 5.802 1.09c3.508 0 8.8-1.777 8.8-6.614 0-5.024-7.174-5.492-7.174-7.676 0-2.185 5.007-1.904 7.207-.718z" fill="#266AA9"/></svg>