<svg width="63" height="21" viewBox="0 0 63 21" fill="none" xmlns="http://www.w3.org/2000/svg">
<path d="M27.3111 19.9013H22.1704L25.3833 0.579865H30.5245L27.3111 19.9013ZM17.8458 0.579865L12.9449 13.8693L12.365 11.0075L12.3655 11.0086L10.6357 2.31954C10.6357 2.31954 10.4266 0.579865 8.19718 0.579865H0.0950706L0 0.907022C0 0.907022 2.47764 1.41145 5.37729 3.11546L9.84349 19.9018H15.1996L23.3783 0.579865H17.8458ZM58.2798 19.9013H63L58.8845 0.579349H54.7521C52.8438 0.579349 52.3791 2.01925 52.3791 2.01925L44.7122 19.9013H50.071L51.1426 17.0313H57.6776L58.2798 19.9013ZM52.6231 13.0666L55.3241 5.83609L56.8437 13.0666H52.6231ZM45.1141 5.22622L45.8477 1.07706C45.8477 1.07706 43.584 0.234619 41.2241 0.234619C38.6731 0.234619 32.615 1.32566 32.615 6.63098C32.615 11.6226 39.7252 11.6846 39.7252 14.3065C39.7252 16.9284 33.3475 16.4586 31.2428 14.8053L30.4785 19.1436C30.4785 19.1436 32.7739 20.2346 36.281 20.2346C39.7891 20.2346 45.0813 18.4572 45.0813 13.6196C45.0813 8.59599 37.9072 8.12825 37.9072 5.94411C37.9077 3.75944 42.9143 4.04008 45.1141 5.22622Z" fill="#266AA9"/>
</svg>
