<svg version="1.1" id="Слой_1" xmlns="http://www.w3.org/2000/svg" x="0" y="0" viewBox="-291 409.9 12 22" xml:space="preserve"><path d="M-285 420.9c2.9 0 5.3-2.4 5.3-5.4 0-3-2.4-5.4-5.3-5.4s-5.3 2.4-5.3 5.4c0 3 2.4 5.4 5.3 5.4zm2.2 4.4c1.1-.3 2.1-.7 3.1-1.3.4-.2.6-.6.7-1 .1-.4 0-.8-.2-1.2-.1-.2-.3-.3-.4-.4l-.6-.3c-.2 0-.4-.1-.6 0-.2 0-.4.1-.6.2-2.2 1.4-5 1.4-7.2 0-.2-.1-.4-.2-.6-.2h-.6c-.2 0-.4.1-.6.3l-.4.4c-.2.4-.3.8-.2 1.2.1.4.3.8.7 1 1 .6 2 1 3.1 1.3l-3 3c-.3.3-.5.7-.5 1.1 0 .4.2.8.5 1.1.3.3.7.5 1.1.5.4 0 .8-.2 1.1-.5l2.9-3 2.9 3c.1.1.3.3.5.3.2.1.4.1.6.1.2 0 .4 0 .6-.1.2-.1.4-.2.5-.3.1-.1.3-.3.3-.5.1-.2.1-.4.1-.6 0-.2 0-.4-.1-.6-.1-.2-.2-.4-.3-.5l-2.8-3zm-2.2-12c1.2 0 2.2 1 2.2 2.2 0 1.2-1 2.2-2.2 2.2-1.2 0-2.2-1-2.2-2.2 0-1.2 1-2.2 2.2-2.2z"/></svg>