<svg width="20" height="15" viewBox="0 0 20 15" fill="none" xmlns="http://www.w3.org/2000/svg">
<path d="M13.3634 0.00332963V0H14.3012L14.6438 0.063263C14.8723 0.104334 15.0797 0.158158 15.266 0.22475C15.4524 0.291343 15.6327 0.36904 15.807 0.457825C15.9814 0.546609 16.1395 0.637075 16.2814 0.72919C16.422 0.820205 16.5483 0.916765 16.6601 1.01887C16.7707 1.12209 16.9432 1.14872 17.1776 1.09878C17.4121 1.04883 17.6646 0.979462 17.9351 0.890677C18.2056 0.801892 18.4731 0.702003 18.7376 0.59101C19.0021 0.480017 19.1632 0.409545 19.2209 0.379578C19.2774 0.348513 19.3075 0.331865 19.3111 0.329634L19.3147 0.324639L19.3327 0.316315L19.3508 0.307991L19.3688 0.299667L19.3868 0.291343L19.3904 0.286349L19.3959 0.283019L19.4013 0.279689L19.4049 0.274695L19.4229 0.2697L19.4409 0.266371L19.4373 0.291343L19.4319 0.316315L19.4229 0.341287L19.4139 0.36626L19.4049 0.382908L19.3959 0.399556L19.3868 0.424528C19.3808 0.441177 19.3748 0.463369 19.3688 0.491121C19.3628 0.518874 19.3057 0.62985 19.1975 0.824084C19.0893 1.01832 18.954 1.21532 18.7917 1.41509C18.6294 1.61487 18.4839 1.7658 18.3553 1.86792C18.2254 1.97114 18.1395 2.04328 18.0974 2.08435C18.0553 2.12652 18.0042 2.16536 17.9441 2.20089L17.8539 2.25583L17.8359 2.26415L17.8179 2.27248L17.8143 2.27747L17.8088 2.2808L17.8034 2.28413L17.7998 2.28912L17.7818 2.29745L17.7638 2.30577L17.7602 2.31077L17.7547 2.3141L17.7493 2.31743L17.7457 2.32242L17.7421 2.32741L17.7367 2.33074L17.7313 2.33407L17.7277 2.33907H17.8179L18.3228 2.23918C18.6595 2.17259 18.9811 2.09213 19.2876 1.99778L19.7746 1.84795L19.8287 1.8313L19.8557 1.82297L19.8738 1.81465L19.8918 1.80633L19.9098 1.798L19.9279 1.78968L19.9639 1.78468L20 1.78135V1.81465L19.991 1.81798L19.982 1.82297L19.9784 1.82797L19.9729 1.8313L19.9675 1.83463L19.9639 1.83962L19.9603 1.84462L19.9549 1.84795L19.9495 1.85128L19.9459 1.85627L19.9423 1.86127L19.9369 1.86459L19.9279 1.88124L19.9188 1.89789L19.9134 1.90122C19.911 1.90455 19.8347 1.99888 19.6844 2.18424C19.5341 2.3707 19.453 2.46503 19.4409 2.46726C19.4289 2.47059 19.4121 2.48724 19.3904 2.5172C19.37 2.54827 19.2426 2.67203 19.0081 2.88846C18.7737 3.10488 18.5441 3.29744 18.3192 3.46615C18.0932 3.63596 17.979 3.84461 17.9766 4.09212C17.973 4.33851 17.9591 4.6171 17.9351 4.92786C17.911 5.23863 17.866 5.57436 17.7998 5.93507C17.7337 6.29579 17.6315 6.70367 17.4932 7.15871C17.355 7.61376 17.1867 8.05771 16.9883 8.49057C16.7899 8.92342 16.5825 9.31187 16.3661 9.65594C16.1497 10 15.9513 10.2913 15.771 10.53C15.5906 10.7686 15.4073 10.9933 15.2209 11.2042C15.0346 11.4151 14.7989 11.6526 14.514 11.9168C14.2278 12.1798 14.0716 12.3241 14.0451 12.3496C14.0175 12.374 13.8996 12.4651 13.6916 12.6226C13.4848 12.7813 13.2624 12.9401 13.0243 13.0988C12.7875 13.2564 12.5699 13.3879 12.3715 13.4933C12.1731 13.5988 11.9339 13.7192 11.6537 13.8546C11.3748 13.9911 11.073 14.1176 10.7484 14.2342C10.4238 14.3507 10.0812 14.4589 9.72047 14.5588C9.35978 14.6587 9.01113 14.7364 8.67448 14.7919C8.33785 14.8474 7.95612 14.8946 7.52931 14.9334L6.88909 14.9917V15H5.71686V14.9917L5.56357 14.9834C5.46139 14.9778 5.37722 14.9722 5.31109 14.9667C5.24498 14.9612 4.99549 14.9306 4.56267 14.8751C4.12985 14.8197 3.79021 14.7641 3.54373 14.7087C3.29728 14.6532 2.93057 14.5477 2.44364 14.3923C1.95672 14.237 1.54013 14.0799 1.19387 13.9212C0.848819 13.7636 0.632408 13.6637 0.544635 13.6215C0.45807 13.5805 0.360685 13.5294 0.25248 13.4684L0.0901713 13.3768L0.0865825 13.3718L0.0811542 13.3685L0.0757439 13.3652L0.0721371 13.3602L0.0541028 13.3518L0.0360685 13.3435L0.0324797 13.3385L0.0270514 13.3352L0.0216411 13.3319L0.0180343 13.3269L0.0144454 13.3219L0.00901713 13.3185H0V13.2852L0.0180343 13.2886L0.0360685 13.2936L0.117223 13.3019C0.171326 13.3074 0.318611 13.3158 0.559062 13.3269C0.799531 13.338 1.055 13.338 1.32552 13.3269C1.59603 13.3158 1.87257 13.2908 2.15509 13.2519C2.43764 13.2131 2.77127 13.1465 3.156 13.0522C3.54074 12.9578 3.89421 12.8457 4.21643 12.7159C4.53744 12.5849 4.76586 12.4872 4.90173 12.4229C5.03638 12.3596 5.24197 12.2419 5.51849 12.0699L5.93327 11.8119L5.93688 11.8069L5.94229 11.8036L5.94772 11.8002L5.95131 11.7952L5.95491 11.7902L5.96032 11.7869L5.96575 11.7836L5.96934 11.7786L5.98738 11.7736L6.00541 11.7703L6.00902 11.7536L6.01443 11.737L6.01986 11.7336L6.02344 11.7286L5.87917 11.7203C5.78299 11.7148 5.68981 11.7092 5.59964 11.7037C5.50947 11.6981 5.36821 11.6731 5.17583 11.6287C4.98348 11.5843 4.77609 11.5178 4.55365 11.429C4.33124 11.3402 4.11482 11.2347 3.90442 11.1127C3.69403 10.9906 3.54193 10.889 3.44815 10.808C3.35558 10.7281 3.23535 10.6149 3.08747 10.4684C2.94079 10.3208 2.81335 10.1693 2.70514 10.0139C2.59693 9.8585 2.49354 9.67923 2.39497 9.47614L2.24527 9.17314L2.23625 9.14817L2.22723 9.1232L2.22182 9.10655L2.21821 9.0899L2.24527 9.09323L2.27232 9.09822L2.47069 9.1232C2.60296 9.13984 2.81035 9.14539 3.09288 9.13984C3.37542 9.1343 3.57078 9.1232 3.67899 9.10655C3.7872 9.0899 3.85333 9.0788 3.87737 9.07325L3.91344 9.06493L3.95852 9.0566L4.00361 9.04828L4.00721 9.04329L4.01262 9.03996L4.01805 9.03663L4.02164 9.03163L3.98557 9.02331L3.9495 9.01498L3.91344 9.00666L3.87737 8.99834L3.8413 8.99001C3.81726 8.98447 3.77518 8.97336 3.71506 8.95672C3.65495 8.94007 3.49264 8.87902 3.22813 8.77359C2.96364 8.66815 2.75324 8.56548 2.59693 8.46559C2.44024 8.36542 2.29084 8.25586 2.14968 8.13762C2.00902 8.01776 1.85454 7.86348 1.6862 7.67481C1.51789 7.48613 1.36761 7.26693 1.23535 7.0172C1.1031 6.76748 1.00391 6.52886 0.937782 6.30133C0.871916 6.07514 0.828461 5.84389 0.807953 5.61043L0.775473 5.26082L0.793508 5.26415L0.811542 5.26915L0.829576 5.27747L0.84761 5.28579L0.865645 5.29412L0.883679 5.30244L1.16321 5.41898C1.34958 5.49668 1.58101 5.56327 1.85753 5.61876C2.13407 5.67425 2.29937 5.70478 2.35347 5.71032L2.43463 5.71865H2.59693L2.59335 5.71365L2.58792 5.71032L2.58251 5.70699L2.5789 5.702L2.57531 5.697L2.56988 5.69367L2.56447 5.69034L2.56087 5.68535L2.54283 5.67703L2.5248 5.6687L2.52121 5.66371L2.51578 5.66038L2.51037 5.65705L2.50676 5.65205L2.48873 5.64373L2.47069 5.63541L2.46711 5.63041C2.4635 5.62818 2.41179 5.59267 2.31199 5.52386C2.2134 5.45394 2.11001 5.36349 2.0018 5.2525C1.8936 5.1415 1.78539 5.02497 1.67719 4.90289C1.56878 4.78053 1.47223 4.64961 1.38864 4.51165C1.30449 4.37292 1.21551 4.19644 1.12173 3.98224C1.02916 3.76915 0.958828 3.55438 0.91073 3.33796C0.862651 3.12153 0.8356 2.90789 0.829576 2.697C0.823571 2.48612 0.829576 2.30577 0.84761 2.15594C0.865645 2.0061 0.901713 1.83684 0.955816 1.64817C1.00992 1.4595 1.08808 1.25972 1.19026 1.04883L1.34355 0.732519L1.35257 0.707547L1.36159 0.682575L1.36702 0.679245L1.3706 0.674251L1.37421 0.669256L1.37962 0.665927L1.38505 0.669256L1.38864 0.674251L1.39225 0.679245L1.39766 0.682575L1.40308 0.685905L1.40667 0.690899L1.41028 0.695893L1.41569 0.699223L1.42471 0.715871L1.43372 0.732519L1.43915 0.735849L1.44274 0.740844L1.6862 0.990566C1.84851 1.15705 2.04088 1.34296 2.2633 1.54828C2.48573 1.7536 2.60896 1.86015 2.633 1.86792C2.65706 1.8768 2.68711 1.90232 2.72317 1.94451C2.75924 1.98558 2.87948 2.0838 3.08386 2.23918C3.28826 2.39456 3.55576 2.57492 3.88638 2.78024C4.21702 2.98557 4.58371 3.18812 4.98647 3.3879C5.38925 3.58768 5.82207 3.76803 6.28494 3.92897C6.74783 4.08991 7.07244 4.19534 7.25879 4.24528C7.44516 4.29523 7.76375 4.35904 8.21461 4.43674C8.66546 4.51443 9.00512 4.56438 9.23354 4.58657C9.46198 4.60876 9.61829 4.62153 9.70243 4.62486L9.82867 4.62819L9.82509 4.60322L9.81966 4.57825L9.78359 4.37014C9.75955 4.23142 9.74752 4.03718 9.74752 3.78746C9.74752 3.53774 9.76857 3.30744 9.81064 3.09656C9.85273 2.88568 9.91585 2.67203 10 2.45561C10.0842 2.23918 10.1665 2.06547 10.2471 1.93452C10.3288 1.80466 10.4358 1.65649 10.5681 1.49001C10.7003 1.32353 10.8717 1.1515 11.0821 0.973918C11.2925 0.796332 11.5329 0.638174 11.8034 0.499445C12.0739 0.360716 12.3234 0.255266 12.5518 0.18313C12.7803 0.110993 12.9727 0.0638124 13.1289 0.0416204C13.2852 0.0194284 13.3634 0.00665927 13.3634 0.00332963Z" fill="#5DA8DC"/>
<path d="M13.3634 0.00332963V0H14.3012L14.6438 0.063263C14.8723 0.104334 15.0797 0.158158 15.266 0.22475C15.4524 0.291343 15.6327 0.36904 15.807 0.457825C15.9814 0.546609 16.1395 0.637075 16.2814 0.72919C16.422 0.820205 16.5483 0.916765 16.6601 1.01887C16.7707 1.12209 16.9432 1.14872 17.1776 1.09878C17.4121 1.04883 17.6646 0.979462 17.9351 0.890677C18.2056 0.801892 18.4731 0.702003 18.7376 0.59101C19.0021 0.480017 19.1632 0.409545 19.2209 0.379578C19.2774 0.348513 19.3075 0.331865 19.3111 0.329634L19.3147 0.324639L19.3327 0.316315L19.3508 0.307991L19.3688 0.299667L19.3868 0.291343L19.3904 0.286349L19.3959 0.283019L19.4013 0.279689L19.4049 0.274695L19.4229 0.2697L19.4409 0.266371L19.4373 0.291343L19.4319 0.316315L19.4229 0.341287L19.4139 0.36626L19.4049 0.382908L19.3959 0.399556L19.3868 0.424528C19.3808 0.441177 19.3748 0.463369 19.3688 0.491121C19.3628 0.518874 19.3057 0.62985 19.1975 0.824084C19.0893 1.01832 18.954 1.21532 18.7917 1.41509C18.6294 1.61487 18.4839 1.7658 18.3553 1.86792C18.2254 1.97114 18.1395 2.04328 18.0974 2.08435C18.0553 2.12652 18.0042 2.16536 17.9441 2.20089L17.8539 2.25583L17.8359 2.26415L17.8179 2.27248L17.8143 2.27747L17.8088 2.2808L17.8034 2.28413L17.7998 2.28912L17.7818 2.29745L17.7638 2.30577L17.7602 2.31077L17.7547 2.3141L17.7493 2.31743L17.7457 2.32242L17.7421 2.32741L17.7367 2.33074L17.7313 2.33407L17.7277 2.33907H17.8179L18.3228 2.23918C18.6595 2.17259 18.9811 2.09213 19.2876 1.99778L19.7746 1.84795L19.8287 1.8313L19.8557 1.82297L19.8738 1.81465L19.8918 1.80633L19.9098 1.798L19.9279 1.78968L19.9639 1.78468L20 1.78135V1.81465L19.991 1.81798L19.982 1.82297L19.9784 1.82797L19.9729 1.8313L19.9675 1.83463L19.9639 1.83962L19.9603 1.84462L19.9549 1.84795L19.9495 1.85128L19.9459 1.85627L19.9423 1.86127L19.9369 1.86459L19.9279 1.88124L19.9188 1.89789L19.9134 1.90122C19.911 1.90455 19.8347 1.99888 19.6844 2.18424C19.5341 2.3707 19.453 2.46503 19.4409 2.46726C19.4289 2.47059 19.4121 2.48724 19.3904 2.5172C19.37 2.54827 19.2426 2.67203 19.0081 2.88846C18.7737 3.10488 18.5441 3.29744 18.3192 3.46615C18.0932 3.63596 17.979 3.84461 17.9766 4.09212C17.973 4.33851 17.9591 4.6171 17.9351 4.92786C17.911 5.23863 17.866 5.57436 17.7998 5.93507C17.7337 6.29579 17.6315 6.70367 17.4932 7.15871C17.355 7.61376 17.1867 8.05771 16.9883 8.49057C16.7899 8.92342 16.5825 9.31187 16.3661 9.65594C16.1497 10 15.9513 10.2913 15.771 10.53C15.5906 10.7686 15.4073 10.9933 15.2209 11.2042C15.0346 11.4151 14.7989 11.6526 14.514 11.9168C14.2278 12.1798 14.0716 12.3241 14.0451 12.3496C14.0175 12.374 13.8996 12.4651 13.6916 12.6226C13.4848 12.7813 13.2624 12.9401 13.0243 13.0988C12.7875 13.2564 12.5699 13.3879 12.3715 13.4933C12.1731 13.5988 11.9339 13.7192 11.6537 13.8546C11.3748 13.9911 11.073 14.1176 10.7484 14.2342C10.4238 14.3507 10.0812 14.4589 9.72047 14.5588C9.35978 14.6587 9.01113 14.7364 8.67448 14.7919C8.33785 14.8474 7.95612 14.8946 7.52931 14.9334L6.88909 14.9917V15H5.71686V14.9917L5.56357 14.9834C5.46139 14.9778 5.37722 14.9722 5.31109 14.9667C5.24498 14.9612 4.99549 14.9306 4.56267 14.8751C4.12985 14.8197 3.79021 14.7641 3.54373 14.7087C3.29728 14.6532 2.93057 14.5477 2.44364 14.3923C1.95672 14.237 1.54013 14.0799 1.19387 13.9212C0.848819 13.7636 0.632408 13.6637 0.544635 13.6215C0.45807 13.5805 0.360685 13.5294 0.25248 13.4684L0.0901713 13.3768L0.0865825 13.3718L0.0811542 13.3685L0.0757439 13.3652L0.0721371 13.3602L0.0541028 13.3518L0.0360685 13.3435L0.0324797 13.3385L0.0270514 13.3352L0.0216411 13.3319L0.0180343 13.3269L0.0144454 13.3219L0.00901713 13.3185H0V13.2852L0.0180343 13.2886L0.0360685 13.2936L0.117223 13.3019C0.171326 13.3074 0.318611 13.3158 0.559062 13.3269C0.799531 13.338 1.055 13.338 1.32552 13.3269C1.59603 13.3158 1.87257 13.2908 2.15509 13.2519C2.43764 13.2131 2.77127 13.1465 3.156 13.0522C3.54074 12.9578 3.89421 12.8457 4.21643 12.7159C4.53744 12.5849 4.76586 12.4872 4.90173 12.4229C5.03638 12.3596 5.24197 12.2419 5.51849 12.0699L5.93327 11.8119L5.93688 11.8069L5.94229 11.8036L5.94772 11.8002L5.95131 11.7952L5.95491 11.7902L5.96032 11.7869L5.96575 11.7836L5.96934 11.7786L5.98738 11.7736L6.00541 11.7703L6.00902 11.7536L6.01443 11.737L6.01986 11.7336L6.02344 11.7286L5.87917 11.7203C5.78299 11.7148 5.68981 11.7092 5.59964 11.7037C5.50947 11.6981 5.36821 11.6731 5.17583 11.6287C4.98348 11.5843 4.77609 11.5178 4.55365 11.429C4.33124 11.3402 4.11482 11.2347 3.90442 11.1127C3.69403 10.9906 3.54193 10.889 3.44815 10.808C3.35558 10.7281 3.23535 10.6149 3.08747 10.4684C2.94079 10.3208 2.81335 10.1693 2.70514 10.0139C2.59693 9.8585 2.49354 9.67923 2.39497 9.47614L2.24527 9.17314L2.23625 9.14817L2.22723 9.1232L2.22182 9.10655L2.21821 9.0899L2.24527 9.09323L2.27232 9.09822L2.47069 9.1232C2.60296 9.13984 2.81035 9.14539 3.09288 9.13984C3.37542 9.1343 3.57078 9.1232 3.67899 9.10655C3.7872 9.0899 3.85333 9.0788 3.87737 9.07325L3.91344 9.06493L3.95852 9.0566L4.00361 9.04828L4.00721 9.04329L4.01262 9.03996L4.01805 9.03663L4.02164 9.03163L3.98557 9.02331L3.9495 9.01498L3.91344 9.00666L3.87737 8.99834L3.8413 8.99001C3.81726 8.98447 3.77518 8.97336 3.71506 8.95672C3.65495 8.94007 3.49264 8.87902 3.22813 8.77359C2.96364 8.66815 2.75324 8.56548 2.59693 8.46559C2.44024 8.36542 2.29084 8.25586 2.14968 8.13762C2.00902 8.01776 1.85454 7.86348 1.6862 7.67481C1.51789 7.48613 1.36761 7.26693 1.23535 7.0172C1.1031 6.76748 1.00391 6.52886 0.937782 6.30133C0.871916 6.07514 0.828461 5.84389 0.807953 5.61043L0.775473 5.26082L0.793508 5.26415L0.811542 5.26915L0.829576 5.27747L0.84761 5.28579L0.865645 5.29412L0.883679 5.30244L1.16321 5.41898C1.34958 5.49668 1.58101 5.56327 1.85753 5.61876C2.13407 5.67425 2.29937 5.70478 2.35347 5.71032L2.43463 5.71865H2.59693L2.59335 5.71365L2.58792 5.71032L2.58251 5.70699L2.5789 5.702L2.57531 5.697L2.56988 5.69367L2.56447 5.69034L2.56087 5.68535L2.54283 5.67703L2.5248 5.6687L2.52121 5.66371L2.51578 5.66038L2.51037 5.65705L2.50676 5.65205L2.48873 5.64373L2.47069 5.63541L2.46711 5.63041C2.4635 5.62818 2.41179 5.59267 2.31199 5.52386C2.2134 5.45394 2.11001 5.36349 2.0018 5.2525C1.8936 5.1415 1.78539 5.02497 1.67719 4.90289C1.56878 4.78053 1.47223 4.64961 1.38864 4.51165C1.30449 4.37292 1.21551 4.19644 1.12173 3.98224C1.02916 3.76915 0.958828 3.55438 0.91073 3.33796C0.862651 3.12153 0.8356 2.90789 0.829576 2.697C0.823571 2.48612 0.829576 2.30577 0.84761 2.15594C0.865645 2.0061 0.901713 1.83684 0.955816 1.64817C1.00992 1.4595 1.08808 1.25972 1.19026 1.04883L1.34355 0.732519L1.35257 0.707547L1.36159 0.682575L1.36702 0.679245L1.3706 0.674251L1.37421 0.669256L1.37962 0.665927L1.38505 0.669256L1.38864 0.674251L1.39225 0.679245L1.39766 0.682575L1.40308 0.685905L1.40667 0.690899L1.41028 0.695893L1.41569 0.699223L1.42471 0.715871L1.43372 0.732519L1.43915 0.735849L1.44274 0.740844L1.6862 0.990566C1.84851 1.15705 2.04088 1.34296 2.2633 1.54828C2.48573 1.7536 2.60896 1.86015 2.633 1.86792C2.65706 1.8768 2.68711 1.90232 2.72317 1.94451C2.75924 1.98558 2.87948 2.0838 3.08386 2.23918C3.28826 2.39456 3.55576 2.57492 3.88638 2.78024C4.21702 2.98557 4.58371 3.18812 4.98647 3.3879C5.38925 3.58768 5.82207 3.76803 6.28494 3.92897C6.74783 4.08991 7.07244 4.19534 7.25879 4.24528C7.44516 4.29523 7.76375 4.35904 8.21461 4.43674C8.66546 4.51443 9.00512 4.56438 9.23354 4.58657C9.46198 4.60876 9.61829 4.62153 9.70243 4.62486L9.82867 4.62819L9.82509 4.60322L9.81966 4.57825L9.78359 4.37014C9.75955 4.23142 9.74752 4.03718 9.74752 3.78746C9.74752 3.53774 9.76857 3.30744 9.81064 3.09656C9.85273 2.88568 9.91585 2.67203 10 2.45561C10.0842 2.23918 10.1665 2.06547 10.2471 1.93452C10.3288 1.80466 10.4358 1.65649 10.5681 1.49001C10.7003 1.32353 10.8717 1.1515 11.0821 0.973918C11.2925 0.796332 11.5329 0.638174 11.8034 0.499445C12.0739 0.360716 12.3234 0.255266 12.5518 0.18313C12.7803 0.110993 12.9727 0.0638124 13.1289 0.0416204C13.2852 0.0194284 13.3634 0.00665927 13.3634 0.00332963Z" fill="#0B072A"/>
</svg>
