<svg version="1.1" id="Слой_1" xmlns="http://www.w3.org/2000/svg" xmlns:xlink="http://www.w3.org/1999/xlink" x="0px" y="0px"
	 viewBox="-290 411.9 13.5 17.1" style="enable-background:new -290 411.9 13.5 17.1;" xml:space="preserve">
<path d="M-285.6,414.5c-2.3,1.3-3,4.2-1.7,6.5c1.3,2.3,4.2,3,6.5,1.7c2.3-1.3,3-4.2,1.7-6.5C-280.5,414-283.4,413.2-285.6,414.5z
	 M-289.1,422c-1.9-3.2-0.8-7.3,2.5-9.2s7.3-0.8,9.2,2.5c1.9,3.2,0.8,7.3-2.5,9.2C-283.1,426.3-287.2,425.2-289.1,422z"/>
<path d="M-281.1,424l1.4-0.8l2.9,5l-1.4,0.8L-281.1,424z"/>
</svg>
