<svg version="1.1" id="Слой_1" xmlns="http://www.w3.org/2000/svg" xmlns:xlink="http://www.w3.org/1999/xlink" x="0px" y="0px"
	 viewBox="-294 412.9 7 16" style="enable-background:new -294 412.9 7 16;" xml:space="preserve">
<path d="M-287.2,412.9h-2.2c-2.2,0-4,1.8-4,5.3c0,2.1,0.9,3.7,2.5,4.4l-3,5.9c-0.1,0.2,0,0.3,0.2,0.3h1.4
	c0.1,0,0.2,0,0.2-0.1l2.7-5.8h1v5.8c0,0.1,0.1,0.1,0.1,0.1h1.2c0.1,0,0.2-0.1,0.2-0.2v-15.6C-287,413-287.1,412.9-287.2,412.9z
	 M-288.5,421.6h-0.8c-1.3,0-2.5-1-2.5-3.6c0-2.7,1.2-3.8,2.4-3.8h1L-288.5,421.6L-288.5,421.6z"/>
</svg>
