<svg version="1.1" id="Слой_1" xmlns="http://www.w3.org/2000/svg" x="0" y="0" viewBox="-286 414.9 23 13" xml:space="preserve"><path d="M-263.5 415.8c.2-.5 0-.9-.8-.9h-2.5c-.6 0-.9.3-1.1.7 0 0-1.3 3-3.1 4.9-.6.6-.8.7-1.2.7-.2 0-.4-.2-.4-.7v-4.8c0-.6-.2-.9-.7-.9h-4c-.4 0-.6.3-.6.5 0 .6.9.7 1 2.3v3.5c0 .8-.1.9-.5.9-.8 0-2.9-3-4.2-6.4-.3-.6-.5-.9-1.1-.9h-2.5c-.7 0-.9.3-.9.7 0 .6.8 3.8 4 7.9 2.1 2.8 5 4.4 7.7 4.4 1.6 0 1.8-.3 1.8-.9v-2.2c0-.7.1-.8.7-.8.4 0 1 .2 2.5 1.5 1.7 1.6 2 2.4 2.9 2.4h2.5c.7 0 1.1-.3.9-1-.2-.7-1-1.6-2.1-2.8-.6-.7-1.5-1.4-1.7-1.7-.4-.5-.3-.7 0-1.1 0 .2 3.1-3.9 3.4-5.3z"/></svg>