<?xml version="1.0" standalone="no"?>
<!DOCTYPE svg PUBLIC "-//W3C//DTD SVG 20010904//EN"
 "http://www.w3.org/TR/2001/REC-SVG-20010904/DTD/svg10.dtd">
<svg version="1.0" xmlns="http://www.w3.org/2000/svg"
 width="512.000000pt" height="512.000000pt" viewBox="0 0 512.000000 512.000000"
 preserveAspectRatio="xMidYMid meet">
<metadata>
Created by potrace 1.11, written by Peter Selinger 2001-2013
</metadata>
<g transform="translate(0.000000,512.000000) scale(0.100000,-0.100000)"
fill="#000000" stroke="none">
<path d="M1015 5105 c-111 -17 -191 -40 -282 -78 -400 -169 -674 -534 -724
-962 -7 -60 -9 -591 -6 -1570 3 -1623 -1 -1503 62 -1691 116 -344 406 -631
753 -743 181 -59 98 -56 1742 -56 1644 0 1561 -3 1742 56 353 114 643 404 757
757 59 181 56 98 56 1742 0 1251 -2 1527 -14 1585 -102 515 -504 893 -1024
964 -121 17 -2957 13 -3062 -4z m691 -1042 c0 -27 25 -174 56 -328 64 -318 98
-498 97 -511 -1 -10 -35 117 -49 181 -4 22 -17 81 -27 130 -11 50 -26 124 -33
165 -14 84 -37 204 -52 265 -18 76 -20 103 -9 124 7 11 13 21 15 21 2 0 3 -21
2 -47z m306 36 c-10 -4 6 -8 35 -10 28 -2 49 -1 46 4 -11 18 21 5 40 -17 21
-23 22 -23 62 -8 60 24 304 23 409 -1 100 -24 370 -116 362 -124 -2 -2 -43 10
-92 27 -131 46 -301 88 -385 96 -111 10 -285 -32 -341 -83 -15 -13 -18 -11
-30 33 -10 37 -19 49 -38 54 -48 13 -298 22 -304 11 -5 -8 39 -250 74 -405 5
-23 16 -79 24 -126 47 -258 79 -407 92 -420 10 -11 51 -15 169 -18 137 -4 156
-6 153 -21 -3 -14 -24 -16 -177 -13 -99 1 -180 7 -186 12 -7 6 -20 52 -30 103
-9 50 -43 231 -76 400 -84 436 -91 475 -80 495 8 15 27 17 150 17 77 0 133 -3
123 -6z m79 -84 c1 -11 3 -56 4 -100 1 -44 5 -96 9 -115 7 -35 7 -35 -11 -13
-20 23 -127 83 -149 83 -8 0 -14 -8 -15 -17 -1 -20 -32 93 -41 148 l-6 36 104
-1 c96 -1 104 -2 105 -21z m-454 -22 c-22 -75 -11 -175 57 -553 86 -476 85
-473 138 -508 41 -27 44 -27 197 -27 140 0 160 2 199 22 37 19 42 19 42 5 0
-10 -9 -31 -20 -49 -26 -44 -68 -53 -210 -46 l-119 6 -9 -34 -10 -34 -1 30
c-1 23 -4 27 -11 15 -8 -13 -10 -13 -10 1 0 11 -13 19 -37 25 -21 4 -41 7 -45
6 -5 -1 -8 4 -8 12 0 8 -6 16 -14 19 -26 10 -89 129 -89 170 0 20 -4 37 -8 37
-5 0 -16 17 -25 38 -19 48 -51 67 -212 121 -189 65 -408 97 -478 71 l-27 -11
6 43 c4 34 14 51 46 79 22 19 57 41 79 47 48 15 151 15 222 2 29 -6 55 -8 57
-6 10 10 -119 29 -197 30 -76 0 -81 1 -45 10 66 16 324 -25 272 -43 -10 -4 36
-22 113 -44 71 -22 135 -37 141 -35 6 2 2 15 -11 31 -12 15 -17 27 -11 27 17
0 13 34 -24 231 -19 101 -37 196 -40 210 -7 46 13 98 48 119 48 30 57 27 44
-17z m1008 3 c99 -21 108 -24 101 -35 -3 -4 -41 1 -83 12 -57 14 -114 20 -216
21 -126 1 -134 2 -95 13 54 15 188 10 293 -11z m720 -2 c-46 -35 -143 -84
-189 -94 -29 -6 -68 -8 -95 -3 -45 7 -43 8 34 13 73 5 88 10 160 52 79 45 132
65 90 32z m190 -109 c67 -64 68 -65 10 -17 -33 28 -82 72 -110 97 -41 39 -43
41 -10 16 22 -16 72 -60 110 -96z m-921 79 c38 -8 107 -26 155 -40 239 -70
314 -87 353 -78 38 8 166 71 205 100 17 13 36 24 40 24 5 0 31 -23 58 -51 28
-29 43 -48 35 -44 -8 5 -2 -6 14 -23 22 -24 26 -32 14 -32 -11 0 -26 -26 -46
-82 -42 -117 -86 -256 -117 -376 -16 -56 -30 -100 -32 -98 -3 3 1 36 8 75 12
69 12 71 -12 90 -13 11 -30 20 -37 21 -9 0 -7 11 8 40 11 21 20 42 20 45 0 3
-18 -4 -40 -15 -23 -11 -52 -25 -67 -31 -21 -8 -24 -7 -15 4 9 10 -15 25 -116
74 -176 85 -387 152 -592 190 -57 10 -256 11 -292 0 -25 -7 -28 -5 -28 18 0
61 74 151 149 182 80 34 191 36 335 7z m423 -40 c-3 -3 -12 -4 -19 -1 -8 3 -5
6 6 6 11 1 17 -2 13 -5z m553 -135 c0 -11 -13 -53 -29 -92 -91 -224 -180 -555
-245 -912 -41 -227 -49 -316 -42 -491 6 -150 5 -162 -13 -178 -17 -16 -56 -17
-477 -14 -494 3 -497 4 -511 56 -18 62 -6 274 21 407 63 303 150 432 419 626
51 36 92 70 92 75 0 5 -36 12 -80 15 -44 3 -141 23 -215 43 -176 48 -213 53
-245 32 -31 -20 -34 -3 -3 18 35 25 95 19 260 -23 128 -33 295 -61 364 -61 9
0 -50 -50 -132 -112 -169 -128 -235 -191 -299 -286 -91 -134 -149 -393 -143
-630 l3 -107 55 -7 c30 -3 240 -6 466 -7 319 -1 414 2 420 12 5 6 7 68 4 137
-8 176 5 317 46 519 79 387 166 714 235 882 24 60 37 103 32 114 -4 13 -3 16
5 11 7 -4 12 -16 12 -27z m30 -23 c0 -26 -6 -18 -14 19 -5 22 -4 26 4 15 5 -8
10 -24 10 -34z m-7 -41 c-3 -9 -8 -14 -10 -11 -3 3 -2 9 2 15 9 16 15 13 8 -4z
m-55 -148 c-22 -65 -39 -119 -37 -121 2 -2 18 -5 34 -7 17 -2 38 -9 47 -17 13
-11 24 -12 50 -4 63 20 124 22 213 8 91 -14 241 -54 232 -62 -2 -2 -33 4 -68
15 -162 50 -249 52 -350 11 -41 -16 -77 -30 -81 -30 -4 0 -8 12 -10 27 -5 48
-87 57 -88 9 0 -4 16 -6 35 -4 20 2 36 -1 36 -7 1 -5 3 -44 4 -86 l2 -76 -52
29 -52 28 -21 -73 c-35 -122 -36 -142 -7 -297 15 -80 32 -151 37 -157 13 -16
237 -18 239 -3 1 6 2 16 3 23 2 15 17 12 105 -16 63 -21 71 -21 92 -7 13 8 0
-10 -29 -40 -70 -72 -146 -188 -163 -247 -9 -35 -14 -42 -19 -27 -5 14 -15 -3
-39 -66 -45 -116 -61 -197 -61 -317 0 -93 2 -104 23 -127 l24 -25 345 -3 c328
-3 347 -2 367 16 19 17 21 17 21 2 0 -9 -11 -28 -25 -41 l-24 -25 -333 1
c-359 0 -386 3 -421 51 -18 24 -21 43 -21 140 1 176 27 303 85 420 16 32 29
66 29 76 0 10 37 50 85 92 l85 75 -60 19 c-57 19 -60 19 -79 2 -17 -16 -35
-18 -135 -15 -63 2 -118 7 -121 11 -4 4 -18 60 -31 124 -25 123 -34 148 -34
97 0 -25 -28 -113 -30 -92 -1 20 121 537 139 589 33 93 94 250 97 247 2 -1
-15 -56 -38 -120z m-2983 -10 c-4 -13 12 -110 34 -215 23 -105 45 -222 51
-259 5 -37 12 -84 16 -103 4 -19 4 -33 1 -30 -3 3 -28 120 -56 260 -29 140
-56 272 -62 292 -7 27 -6 43 3 58 17 26 20 25 13 -3z m215 12 c67 -2 100 -6
112 -17 14 -12 25 -13 62 -3 56 14 184 14 262 0 61 -10 248 -68 242 -75 -2 -2
-39 8 -82 22 -44 14 -122 32 -175 41 -90 15 -100 15 -166 -1 -38 -10 -85 -27
-103 -37 -44 -25 -46 -24 -57 14 -9 29 -14 33 -60 39 -27 3 -83 7 -122 7 -85
1 -82 6 -58 -118 8 -42 35 -182 60 -311 25 -129 48 -247 51 -262 3 -15 11 -31
17 -36 7 -6 65 -12 129 -14 86 -2 118 -6 118 -15 0 -19 -263 -18 -279 1 -6 7
-27 100 -47 207 -20 107 -51 272 -70 368 -39 198 -37 206 30 197 23 -3 84 -6
136 -7z m-260 -57 c0 -5 -3 -12 -7 -16 -23 -22 -12 -137 43 -446 14 -80 29
-168 34 -196 17 -99 32 -139 63 -169 31 -28 37 -30 137 -33 89 -3 112 -1 153
17 55 24 63 11 23 -36 l-24 -28 -134 3 c-146 4 -190 18 -220 70 -14 24 -54
198 -73 317 -3 22 -22 120 -41 218 -43 226 -43 247 -3 281 31 26 49 33 49 18z
m341 -16 c6 -164 6 -176 -5 -163 -10 12 -102 67 -112 67 -2 0 -4 -10 -5 -22
-1 -19 -37 109 -39 135 0 4 36 7 80 6 73 -3 80 -5 81 -23z m3133 -137 c26 -9
33 -15 22 -19 -20 -7 228 -80 272 -80 34 0 88 24 156 69 l39 25 43 -48 c43
-47 53 -66 34 -66 -9 0 -99 -266 -115 -337 -3 -18 -11 -36 -17 -40 -8 -4 -9 0
-4 13 4 10 10 33 13 49 4 25 0 33 -21 44 -24 13 -24 15 -11 42 21 39 20 40
-25 16 -31 -17 -42 -19 -48 -10 -12 20 -199 100 -308 133 -144 43 -290 65
-356 54 -33 -6 -52 -14 -50 -22 1 -7 -3 -12 -8 -12 -17 0 -11 48 10 90 13 25
37 49 67 67 42 25 58 28 133 28 47 0 105 -3 130 -7 38 -6 41 -6 15 3 -16 6
-75 14 -130 19 l-100 9 110 -4 c61 -2 127 -9 149 -16z m471 12 c-13 -23 -114
-71 -146 -70 -33 0 -33 1 11 13 25 6 63 24 85 38 42 28 60 35 50 19z m122 -70
c56 -49 60 -55 53 -85 -4 -17 -14 -44 -22 -61 -25 -49 -74 -203 -104 -330 -15
-65 -29 -114 -31 -109 -7 20 75 320 111 411 20 50 35 100 33 111 -2 11 -33 46
-70 77 -37 32 -67 59 -67 62 0 7 32 -18 97 -76z m-457 49 c8 -5 11 -10 5 -10
-5 0 -17 5 -25 10 -8 5 -10 10 -5 10 6 0 17 -5 25 -10z m-1836 -59 c3 -5 -3
-11 -14 -14 -20 -5 -26 3 -13 16 9 10 21 9 27 -2z m-457 -123 c-3 -8 -6 -5 -6
6 -1 11 2 17 5 13 3 -3 4 -12 1 -19z m596 -40 c96 -30 98 -30 120 -12 25 21 6
-3 -74 -91 -59 -66 -145 -195 -180 -270 -15 -33 -39 -112 -53 -175 -13 -63
-25 -105 -25 -94 -1 12 10 70 24 130 13 60 23 109 22 111 -9 8 -84 -191 -109
-286 -24 -96 -30 -143 -35 -276 -6 -180 -1 -205 49 -232 30 -17 69 -18 498
-18 458 1 466 1 508 22 l44 22 -6 -27 c-4 -15 -20 -39 -37 -54 l-29 -28 -468
0 c-257 0 -484 5 -506 9 -47 11 -92 53 -107 100 -15 45 -14 301 1 396 43 267
130 451 290 607 l88 86 -47 21 c-27 11 -66 23 -89 27 -42 7 -57 24 -47 55 7
23 31 19 168 -23z m2157 -128 c-16 -47 -29 -80 -29 -73 -1 6 10 44 24 85 14
40 25 75 25 77 0 2 2 2 5 0 2 -3 -9 -43 -25 -89z m-3396 0 c110 -29 263 -53
278 -44 4 3 8 1 8 -3 0 -5 -49 -46 -109 -91 -116 -87 -195 -167 -236 -237 -62
-105 -100 -292 -93 -460 l3 -80 359 0 359 0 2 180 c2 180 19 299 69 480 23 83
18 36 -13 -111 -43 -206 -54 -312 -47 -445 5 -96 4 -118 -8 -128 -16 -14 -141
-17 -513 -13 -254 3 -243 -5 -243 148 0 120 27 271 66 377 40 106 112 186 269
303 l79 58 -100 16 c-54 10 -133 27 -174 40 -50 15 -89 20 -119 17 -41 -5 -44
-4 -26 9 28 21 65 17 189 -16z m-159 -40 c-3 -5 -11 -10 -16 -10 -6 0 -7 5 -4
10 3 6 11 10 16 10 6 0 7 -4 4 -10z m-358 -52 c-3 -7 -5 -2 -5 12 0 14 2 19 5
13 2 -7 2 -19 0 -25z m3198 2 c62 -16 147 -32 189 -36 42 -4 73 -11 70 -16 -3
-5 -48 -40 -99 -79 -223 -166 -289 -294 -302 -581 l-6 -136 44 -7 c24 -3 177
-5 339 -3 l294 3 -3 135 c-1 75 2 165 8 200 18 106 64 311 68 306 2 -2 -7 -59
-21 -127 -40 -199 -49 -283 -43 -406 4 -95 3 -116 -10 -129 -14 -14 -56 -15
-339 -12 -294 3 -325 5 -341 21 -39 39 -23 278 29 437 39 118 98 191 247 303
l96 72 -71 6 c-39 4 -113 19 -165 34 -65 19 -108 25 -139 22 -40 -5 -43 -4
-25 9 27 20 51 18 180 -16z m679 -34 c-3 -15 -8 -25 -11 -23 -2 3 -1 17 3 31
3 15 8 25 11 23 2 -3 1 -17 -3 -31z m-3867 -8 c-3 -8 -6 -5 -6 6 -1 11 2 17 5
13 3 -3 4 -12 1 -19z m2700 -10 c-3 -7 -5 -2 -5 12 0 14 2 19 5 13 2 -7 2 -19
0 -25z m353 18 c0 -2 -9 -6 -20 -9 -11 -3 -18 -1 -14 4 5 9 34 13 34 5z
m-2610 -40 c80 -24 86 -24 105 -8 17 14 -43 -56 -82 -96 -59 -60 -118 -179
-148 -295 -13 -51 -24 -83 -24 -72 -1 11 8 53 18 93 11 39 17 72 15 72 -8 0
-61 -124 -77 -181 -35 -117 -47 -340 -23 -387 27 -53 33 -53 423 -50 344 3
362 4 384 23 20 18 22 18 16 2 -4 -10 -7 -23 -7 -27 0 -5 -10 -18 -22 -30 -21
-19 -33 -20 -382 -19 -253 0 -371 4 -395 12 -57 20 -74 54 -79 158 -8 170 25
339 100 503 35 76 52 100 120 165 l79 75 -66 26 c-36 14 -63 29 -59 33 4 4 2
7 -5 7 -7 0 -9 5 -6 10 9 14 21 13 115 -14z m2267 -18 c-3 -8 -6 -5 -6 6 -1
11 2 17 5 13 3 -3 4 -12 1 -19z m1140 0 c-3 -8 -6 -5 -6 6 -1 11 2 17 5 13 3
-3 4 -12 1 -19z m-1165 -201 c32 -28 34 -28 138 -24 115 4 149 10 162 29 5 9
8 4 8 -13 0 -14 -9 -34 -21 -45 -18 -16 -35 -18 -141 -16 -173 4 -211 24 -201
102 6 39 7 41 15 19 5 -13 23 -37 40 -52z m-1153 -297 c0 -77 -3 -140 -8 -140
-15 0 -20 68 -11 158 6 48 10 95 10 105 0 9 2 17 4 17 2 0 4 -63 5 -140z
m1472 44 c-5 -21 -9 -30 -10 -19 -1 24 10 67 15 62 3 -2 0 -22 -5 -43z m-2713
-144 c1 -59 -3 -100 -8 -100 -11 0 -13 84 -4 154 4 25 8 46 9 46 1 0 3 -45 3
-100z m2699 63 c-3 -10 -5 -4 -5 12 0 17 2 24 5 18 2 -7 2 -21 0 -30z m-380
-90 c-2 -16 -4 -3 -4 27 0 30 2 43 4 28 2 -16 2 -40 0 -55z m370 -76 c-2 -23
-3 -1 -3 48 0 50 1 68 3 42 2 -26 2 -67 0 -90z m-1870 21 c-2 -13 -4 -3 -4 22
0 25 2 35 4 23 2 -13 2 -33 0 -45z m2640 -45 c-3 -10 -5 -4 -5 12 0 17 2 24 5
18 2 -7 2 -21 0 -30z m-2687 -348 c16 -9 33 -27 36 -41 23 -90 -47 -252 -155
-363 -79 -80 -142 -114 -227 -119 -54 -4 -64 -1 -83 19 -31 32 -24 94 18 184
70 151 180 263 268 273 l44 5 -49 -51 c-133 -137 -234 -360 -167 -370 66 -9
219 193 261 345 17 60 16 64 -1 83 -23 25 -73 26 -146 3 -63 -20 -164 -112
-174 -159 -12 -53 -13 -54 -37 -45 -19 7 -23 16 -22 46 2 64 101 147 222 186
71 22 173 24 212 4z m544 -28 c25 -40 -51 -110 -94 -87 -29 15 -25 56 7 86 31
28 70 29 87 1z m624 -11 c6 -54 -70 -100 -106 -64 -19 19 -14 43 13 72 19 21
33 27 58 24 27 -3 33 -7 35 -32z m1039 -9 c-14 -24 -56 -99 -93 -168 -36 -68
-78 -143 -91 -166 -40 -68 -2 -88 61 -32 20 17 41 29 47 27 17 -6 -73 -96
-114 -113 -44 -18 -98 -20 -115 -3 -15 15 -15 53 -1 81 7 12 -13 -1 -43 -30
-59 -55 -85 -66 -139 -61 -29 2 -34 7 -37 31 l-3 27 -35 -26 c-72 -55 -164
-39 -164 28 l0 30 -26 -32 c-46 -54 -125 -81 -163 -54 -34 24 -26 67 30 171
46 87 55 123 30 123 -27 0 -75 -62 -136 -175 l-67 -125 -53 0 -54 0 63 113
c34 61 78 142 97 180 l34 67 52 0 c42 0 51 -3 47 -15 -5 -12 -2 -12 25 1 17 8
47 14 68 12 31 -2 39 -8 47 -30 8 -23 1 -43 -47 -137 -30 -60 -53 -112 -50
-115 16 -16 54 -4 75 24 12 17 27 30 33 30 6 0 19 17 30 37 74 138 203 226
277 188 16 -7 28 -9 28 -4 0 5 25 9 56 9 56 0 56 0 42 -22 -8 -13 -43 -75 -77
-139 -52 -99 -59 -118 -47 -128 18 -15 49 -1 72 34 8 13 25 25 36 27 13 2 33
28 60 78 45 85 149 273 155 280 2 2 25 7 51 11 26 3 51 7 55 8 5 0 -2 -18 -16
-42z m-1987 -115 c0 -4 -5 -13 -12 -20 -18 -18 -4 -15 41 9 24 12 48 18 61 14
45 -14 6 -105 -47 -105 -16 0 -23 6 -23 20 0 28 -36 26 -63 -4 -12 -13 -44
-68 -71 -121 -83 -160 -78 -155 -136 -155 l-51 0 55 103 c30 56 70 131 90 165
20 35 36 67 36 71 0 4 5 12 12 19 13 13 108 17 108 4z m270 4 c0 -2 -27 -51
-59 -110 -64 -114 -89 -172 -78 -182 21 -21 115 53 148 117 27 54 118 146 163
164 42 18 102 20 112 4 4 -8 9 -8 17 0 13 13 107 15 107 3 0 -5 -38 -78 -85
-162 -46 -85 -83 -156 -80 -158 8 -8 75 40 96 69 11 16 29 29 39 29 13 0 27
17 45 51 14 29 42 80 61 115 l36 64 49 0 c27 0 49 -2 49 -4 0 -3 -31 -63 -70
-135 -38 -71 -70 -134 -70 -139 0 -31 57 -16 88 22 18 24 42 35 42 20 0 -3
-14 -24 -31 -45 -49 -62 -146 -102 -188 -79 -24 12 -28 58 -10 93 7 12 -12 -1
-42 -29 -30 -28 -71 -56 -90 -63 -25 -8 -40 -22 -53 -47 -27 -57 -64 -101
-101 -118 -39 -19 -106 -21 -123 -4 -35 35 12 108 94 144 29 13 56 28 60 35 5
9 2 10 -12 4 -61 -26 -92 -29 -118 -12 -20 13 -26 26 -26 51 l0 34 -32 -30
c-63 -60 -150 -84 -182 -52 -19 18 -19 37 -3 79 13 34 125 243 140 263 8 10
107 18 107 8z"/>
<path d="M2220 4053 c-30 -9 -63 -16 -72 -16 -10 -1 -18 -5 -18 -10 0 -10 17
-7 125 23 39 10 59 19 45 19 -14 0 -50 -7 -80 -16z"/>
<path d="M3620 3400 c0 -5 5 -10 11 -10 5 0 7 5 4 10 -3 6 -8 10 -11 10 -2 0
-4 -4 -4 -10z"/>
<path d="M928 3523 c7 -3 16 -2 19 1 4 3 -2 6 -13 5 -11 0 -14 -3 -6 -6z"/>
<path d="M3514 1547 c-50 -28 -130 -150 -136 -207 -4 -35 35 -40 68 -9 31 29
127 206 119 219 -8 13 -25 12 -51 -3z"/>
<path d="M2454 1510 c-44 -43 -94 -136 -97 -178 -3 -36 23 -39 60 -8 25 21
133 199 133 219 0 4 -13 7 -28 7 -19 0 -41 -12 -68 -40z"/>
<path d="M2306 1169 c-25 -19 -36 -59 -17 -59 9 0 71 66 71 75 0 12 -30 3 -54
-16z"/>
</g>
</svg>
