<svg version="1.1" id="Слой_1" xmlns="http://www.w3.org/2000/svg" x="0" y="0" viewBox="-287 411.9 20 18" xml:space="preserve"><path d="M-273.5 420.8c-.1-2.1-1.8-3.3-3.7-3.3h-.1c-2.3 0-3.6 1.7-3.6 3.6 0 2.1 1.5 3.5 3.5 3.5 2.2 0 3.7-1.5 3.8-3.4l.1-.4zm-3.8-5.2c1.5 0 3 .6 4 1.6 0-.5.3-.8.8-.8h.1c.7 0 .9.7.9.9v7.4c-.1.5.5.7.9.4 1.3-1.2 2.8-6.3-.8-9.2-3.3-2.7-7.8-2.3-10.2-.7-2.5 1.6-4.1 5.3-2.6 8.6 1.7 3.7 6.6 4.8 9.5 3.7 1.5-.6 2.2 1.3.6 1.9-2.3.9-8.8.8-11.8-4.1-2-3.3-1.9-9.1 3.5-12.1 4.1-2.3 9.6-1.7 12.8 1.5 3.4 3.4 3.2 9.6-.1 12.1-1.5 1.1-3.8 0-3.7-1.6v-.5c-1.1 1-2.5 1.6-4 1.6-3 0-5.7-2.5-5.7-5.3.1-2.9 2.7-5.4 5.8-5.4z"/></svg>