<svg version="1.1" id="Слой_1" xmlns="http://www.w3.org/2000/svg" x="0" y="0" viewBox="-572.7 820.7 23.1 22.3" xml:space="preserve"><path d="M-561.9 822.2c.3-.5.9-.6 1.4-.3.1.1.3.2.3.3l2.9 4.8c.1.2.4.4.6.5l5.4 1.3c.5.1.9.7.7 1.2 0 .2-.1.3-.2.4l-3.7 4.2c-.2.2-.3.5-.2.7l.5 5.6c0 .6-.4 1-.9 1.1-.2 0-.3 0-.5-.1l-5.1-2.2c-.2-.1-.5-.1-.8 0l-5.1 2.2c-.5.2-1.1 0-1.3-.5-.1-.2-.1-.3-.1-.5l.5-5.6c0-.3-.1-.5-.2-.7l-3.7-4.2c-.4-.4-.3-1 .1-1.4.1-.1.3-.2.4-.2l5.4-1.3c.3-.1.5-.2.6-.5l3-4.8z"/><path d="M-555 843c-.3 0-.6 0-1-.2l-5-2.2h-.1l-5 2.2c-1.1.4-2.2-.1-2.6-1-.2-.3-.2-.6-.2-.9l.5-5.7-3.6-4.1c-.7-.7-.7-2 .1-2.8.2-.2.6-.4.9-.5l5.3-1.3 3-4.9c.3-.4.7-.8 1.2-.9.5-.1 1.1 0 1.6.3l.2.1c.1.1.4.3.5.6l2.8 4.7s.1 0 .1.1l5.3 1.3c.5.1 1 .5 1.3 1 .2.4.3.9.2 1.4-.1.5-.3.8-.5.9l-3.6 4.1.5 5.6c-.1 1.1-.8 2-1.9 2.2zm-15.6-13.2l3.8 4.4c.1.2.3.6.3 1.1l-.5 5.7 5.1-2.2c.6-.2 1.2-.2 1.6 0l5 2.2v-.1l-.5-5.4c-.2-.5 0-1.2.5-1.6l3.6-4.1-5.6-1.4c-.2-.1-.8-.4-1-.9l-2.8-4.7-2.9 4.7c-.3.7-.9.9-1.2 1l-5.4 1.3z" opacity=".28" fill="#fff"/></svg>