<svg version="1.1" id="Слой_1" xmlns="http://www.w3.org/2000/svg" xmlns:xlink="http://www.w3.org/1999/xlink" x="0px" y="0px"
	 viewBox="-287 411.9 20 18" style="enable-background:new -287 411.9 20 18;" xml:space="preserve">
<path d="M-273.5,420.8c-0.1-2.1-1.8-3.3-3.7-3.3h-0.1c-2.3,0-3.6,1.7-3.6,3.6c0,2.1,1.5,3.5,3.5,3.5
	c2.2,0,3.7-1.5,3.8-3.4L-273.5,420.8z M-277.3,415.6c1.5,0,3,0.6,4,1.6v0c0-0.5,0.3-0.8,0.8-0.8l0.1,0c0.7,0,0.9,0.7,0.9,0.9l0,7.4
	c-0.1,0.5,0.5,0.7,0.9,0.4c1.3-1.2,2.8-6.3-0.8-9.2c-3.3-2.7-7.8-2.3-10.2-0.7c-2.5,1.6-4.1,5.3-2.6,8.6c1.7,3.7,6.6,4.8,9.5,3.7
	c1.5-0.6,2.2,1.3,0.6,1.9c-2.3,0.9-8.8,0.8-11.8-4.1c-2-3.3-1.9-9.1,3.5-12.1c4.1-2.3,9.6-1.7,12.8,1.5c3.4,3.4,3.2,9.6-0.1,12.1
	c-1.5,1.1-3.8,0-3.7-1.6l0-0.5c-1.1,1-2.5,1.6-4,1.6c-3,0-5.7-2.5-5.7-5.3C-283,418.1-280.4,415.6-277.3,415.6z"/>
</svg>
