<svg version="1.1" id="Слой_1" xmlns="http://www.w3.org/2000/svg" xmlns:xlink="http://www.w3.org/1999/xlink" x="0px" y="0px"
	 viewBox="-291 409.9 12 22" style="enable-background:new -291 409.9 12 22;" xml:space="preserve">
<path d="M-285,420.9c2.9,0,5.3-2.4,5.3-5.4c0-3-2.4-5.4-5.3-5.4c-2.9,0-5.3,2.4-5.3,5.4
	C-290.3,418.5-287.9,420.9-285,420.9z M-282.8,425.3c1.1-0.3,2.1-0.7,3.1-1.3c0.4-0.2,0.6-0.6,0.7-1c0.1-0.4,0-0.8-0.2-1.2
	c-0.1-0.2-0.3-0.3-0.4-0.4c-0.2-0.1-0.4-0.2-0.6-0.3c-0.2,0-0.4-0.1-0.6,0c-0.2,0-0.4,0.1-0.6,0.2c-2.2,1.4-5,1.4-7.2,0
	c-0.2-0.1-0.4-0.2-0.6-0.2c-0.2,0-0.4,0-0.6,0c-0.2,0-0.4,0.1-0.6,0.3s-0.3,0.3-0.4,0.4c-0.2,0.4-0.3,0.8-0.2,1.2
	c0.1,0.4,0.3,0.8,0.7,1c1,0.6,2,1,3.1,1.3l-3,3c-0.3,0.3-0.5,0.7-0.5,1.1c0,0.4,0.2,0.8,0.5,1.1c0.3,0.3,0.7,0.5,1.1,0.5
	c0.4,0,0.8-0.2,1.1-0.5l2.9-3l2.9,3c0.1,0.1,0.3,0.3,0.5,0.3c0.2,0.1,0.4,0.1,0.6,0.1c0.2,0,0.4,0,0.6-0.1c0.2-0.1,0.4-0.2,0.5-0.3
	c0.1-0.1,0.3-0.3,0.3-0.5c0.1-0.2,0.1-0.4,0.1-0.6c0-0.2,0-0.4-0.1-0.6c-0.1-0.2-0.2-0.4-0.3-0.5L-282.8,425.3z M-285,413.3
	c1.2,0,2.2,1,2.2,2.2c0,1.2-1,2.2-2.2,2.2c-1.2,0-2.2-1-2.2-2.2C-287.2,414.3-286.2,413.3-285,413.3z"/>
</svg>
