<?xml version="1.0" encoding="utf-8"?>
<!-- Generator: Adobe Illustrator 19.0.1, SVG Export Plug-In . SVG Version: 6.00 Build 0)  -->
<svg version="1.1" id="Слой_1" xmlns="http://www.w3.org/2000/svg" xmlns:xlink="http://www.w3.org/1999/xlink" x="0px" y="0px"
	 viewBox="-572.7 820.7 23.1 22.3" style="enable-background:new -572.7 820.7 23.1 22.3;" xml:space="preserve">
<style type="text/css">
	.st0{opacity:0.28;fill:#FFFFFF;}
</style>
<path d="M-561.9,822.2c0.3-0.5,0.9-0.6,1.4-0.3c0.1,0.1,0.3,0.2,0.3,0.3l2.9,4.8c0.1,0.2,0.4,0.4,0.6,0.5l5.4,1.3
	c0.5,0.1,0.9,0.7,0.7,1.2c0,0.2-0.1,0.3-0.2,0.4l-3.7,4.2c-0.2,0.2-0.3,0.5-0.2,0.7l0.5,5.6c0,0.6-0.4,1-0.9,1.1
	c-0.2,0-0.3,0-0.5-0.1l-5.1-2.2c-0.2-0.1-0.5-0.1-0.8,0l-5.1,2.2c-0.5,0.2-1.1,0-1.3-0.5c-0.1-0.2-0.1-0.3-0.1-0.5l0.5-5.6
	c0-0.3-0.1-0.5-0.2-0.7l-3.7-4.2c-0.4-0.4-0.3-1,0.1-1.4c0.1-0.1,0.3-0.2,0.4-0.2l5.4-1.3c0.3-0.1,0.5-0.2,0.6-0.5L-561.9,822.2z"/>
<path class="st0" d="M-555,843L-555,843c-0.3,0-0.6,0-1-0.2l-5-2.2c0,0,0,0-0.1,0l-5,2.2c-1.1,0.4-2.2-0.1-2.6-1
	c-0.2-0.3-0.2-0.6-0.2-0.9l0.5-5.7c0,0,0,0,0,0l-3.6-4.1c-0.7-0.7-0.7-2,0.1-2.8c0.2-0.2,0.6-0.4,0.9-0.5l5.3-1.3l3-4.9
	c0.3-0.4,0.7-0.8,1.2-0.9c0.5-0.1,1.1,0,1.6,0.3l0.2,0.1c0.1,0.1,0.4,0.3,0.5,0.6l2.8,4.7c0,0,0.1,0,0.1,0.1l5.3,1.3
	c0.5,0.1,1,0.5,1.3,1c0.2,0.4,0.3,0.9,0.2,1.4c-0.1,0.5-0.3,0.8-0.5,0.9l-3.6,4.1l0.5,5.6C-553.2,841.9-553.9,842.8-555,843
	L-555,843z M-570.6,829.8l3.8,4.4c0.1,0.2,0.3,0.6,0.3,1.1l-0.5,5.7l0,0l5.1-2.2c0.6-0.2,1.2-0.2,1.6,0l5,2.2c0,0,0,0,0-0.1
	l-0.5-5.4c-0.2-0.5,0-1.2,0.5-1.6l3.6-4.1l-5.6-1.4c-0.2-0.1-0.8-0.4-1-0.9l-2.8-4.7c0,0,0,0,0,0l-2.9,4.7c-0.3,0.7-0.9,0.9-1.2,1
	L-570.6,829.8z"/>
</svg>
