<svg version="1.1" id="Слой_1" xmlns="http://www.w3.org/2000/svg" xmlns:xlink="http://www.w3.org/1999/xlink" x="0px" y="0px"
	 viewBox="-287 413.9 20 15" style="enable-background:new -287 413.9 20 15;" xml:space="preserve">
<path d="M-273.6,413.9L-273.6,413.9l0.9,0l0.3,0.1c0.2,0,0.4,0.1,0.6,0.2c0.2,0.1,0.4,0.1,0.5,0.2c0.2,0.1,0.3,0.2,0.5,0.3
	c0.1,0.1,0.3,0.2,0.4,0.3c0.1,0.1,0.3,0.1,0.5,0.1c0.2,0,0.5-0.1,0.8-0.2c0.3-0.1,0.5-0.2,0.8-0.3s0.4-0.2,0.5-0.2
	c0.1,0,0.1,0,0.1,0l0,0l0,0l0,0l0,0l0,0l0,0l0,0l0,0l0,0l0,0l0,0l0,0l0,0l0,0l0,0l0,0l0,0l0,0c0,0,0,0,0,0.1c0,0-0.1,0.1-0.2,0.3
	c-0.1,0.2-0.2,0.4-0.4,0.6c-0.2,0.2-0.3,0.4-0.4,0.5c-0.1,0.1-0.2,0.2-0.3,0.2c0,0-0.1,0.1-0.2,0.1l-0.1,0.1l0,0l0,0l0,0l0,0l0,0
	l0,0l0,0l0,0l0,0l0,0l0,0l0,0l0,0l0,0l0,0l0,0h0.1l0.5-0.1c0.3-0.1,0.7-0.1,1-0.2l0.5-0.1l0.1,0l0,0l0,0l0,0l0,0l0,0l0,0l0,0v0l0,0
	l0,0l0,0l0,0l0,0l0,0l0,0l0,0l0,0l0,0l0,0l0,0l0,0l0,0l0,0c0,0-0.1,0.1-0.2,0.3c-0.2,0.2-0.2,0.3-0.2,0.3c0,0,0,0-0.1,0
	c0,0-0.1,0.2-0.4,0.4c-0.2,0.2-0.5,0.4-0.7,0.6c-0.2,0.2-0.3,0.4-0.3,0.6c0,0.2,0,0.5,0,0.8c0,0.3-0.1,0.6-0.1,1
	c-0.1,0.4-0.2,0.8-0.3,1.2c-0.1,0.5-0.3,0.9-0.5,1.3c-0.2,0.4-0.4,0.8-0.6,1.2c-0.2,0.3-0.4,0.6-0.6,0.9c-0.2,0.2-0.4,0.5-0.6,0.7
	c-0.2,0.2-0.4,0.4-0.7,0.7c-0.3,0.3-0.4,0.4-0.5,0.4c0,0-0.1,0.1-0.4,0.3c-0.2,0.2-0.4,0.3-0.7,0.5c-0.2,0.2-0.5,0.3-0.7,0.4
	c-0.2,0.1-0.4,0.2-0.7,0.4c-0.3,0.1-0.6,0.3-0.9,0.4c-0.3,0.1-0.7,0.2-1,0.3c-0.4,0.1-0.7,0.2-1,0.2c-0.3,0.1-0.7,0.1-1.1,0.1
	l-0.6,0.1v0h-1.2v0l-0.2,0c-0.1,0-0.2,0-0.3,0c-0.1,0-0.3,0-0.7-0.1c-0.4-0.1-0.8-0.1-1-0.2c-0.2-0.1-0.6-0.2-1.1-0.3
	c-0.5-0.2-0.9-0.3-1.2-0.5c-0.3-0.2-0.6-0.3-0.6-0.3c-0.1,0-0.2-0.1-0.3-0.2l-0.2-0.1l0,0l0,0l0,0l0,0l0,0l0,0l0,0l0,0l0,0l0,0l0,0
	l0,0h0v0l0,0l0,0l0.1,0c0.1,0,0.2,0,0.4,0c0.2,0,0.5,0,0.8,0c0.3,0,0.5,0,0.8-0.1c0.3,0,0.6-0.1,1-0.2c0.4-0.1,0.7-0.2,1.1-0.3
	c0.3-0.1,0.5-0.2,0.7-0.3c0.1-0.1,0.3-0.2,0.6-0.4l0.4-0.3l0,0l0,0l0,0l0,0l0,0l0,0l0,0l0,0l0,0l0,0l0,0l0,0l0,0l0,0l-0.1,0
	c-0.1,0-0.2,0-0.3,0c-0.1,0-0.2,0-0.4-0.1c-0.2,0-0.4-0.1-0.6-0.2c-0.2-0.1-0.4-0.2-0.6-0.3c-0.2-0.1-0.4-0.2-0.5-0.3
	c-0.1-0.1-0.2-0.2-0.4-0.3c-0.1-0.1-0.3-0.3-0.4-0.5s-0.2-0.3-0.3-0.5l-0.1-0.3l0,0l0,0l0,0l0,0l0,0l0,0l0.2,0c0.1,0,0.3,0,0.6,0
	c0.3,0,0.5,0,0.6,0s0.2,0,0.2,0l0,0l0,0l0,0l0,0l0,0l0,0l0,0l0,0l0,0l0,0l0,0l0,0c0,0-0.1,0-0.1,0c-0.1,0-0.2-0.1-0.5-0.2
	c-0.3-0.1-0.5-0.2-0.6-0.3c-0.2-0.1-0.3-0.2-0.4-0.3c-0.1-0.1-0.3-0.3-0.5-0.5c-0.2-0.2-0.3-0.4-0.5-0.7s-0.2-0.5-0.3-0.7
	c-0.1-0.2-0.1-0.5-0.1-0.7l0-0.3l0,0l0,0l0,0l0,0l0,0l0,0l0.3,0.1c0.2,0.1,0.4,0.1,0.7,0.2s0.4,0.1,0.5,0.1l0.1,0h0.2l0,0l0,0l0,0
	l0,0l0,0l0,0l0,0l0,0l0,0l0,0l0,0l0,0l0,0l0,0l0,0l0,0l0,0c0,0-0.1,0-0.2-0.1c-0.1-0.1-0.2-0.2-0.3-0.3s-0.2-0.2-0.3-0.3
	c-0.1-0.1-0.2-0.3-0.3-0.4c-0.1-0.1-0.2-0.3-0.3-0.5c-0.1-0.2-0.2-0.4-0.2-0.6c0-0.2-0.1-0.4-0.1-0.6s0-0.4,0-0.5
	c0-0.1,0.1-0.3,0.1-0.5c0.1-0.2,0.1-0.4,0.2-0.6l0.2-0.3l0,0l0,0l0,0l0,0l0,0l0,0l0,0l0,0l0,0l0,0l0,0l0,0l0,0l0,0l0,0l0,0l0,0l0,0
	l0.2,0.2c0.2,0.2,0.4,0.4,0.6,0.6c0.2,0.2,0.3,0.3,0.4,0.3c0,0,0.1,0,0.1,0.1c0,0,0.2,0.1,0.4,0.3c0.2,0.2,0.5,0.3,0.8,0.5
	c0.3,0.2,0.7,0.4,1.1,0.6c0.4,0.2,0.8,0.4,1.3,0.5c0.5,0.2,0.8,0.3,1,0.3c0.2,0,0.5,0.1,1,0.2c0.5,0.1,0.8,0.1,1,0.1s0.4,0,0.5,0
	l0.1,0l0,0l0,0l0-0.2c0-0.1,0-0.3,0-0.6s0-0.5,0.1-0.7c0-0.2,0.1-0.4,0.2-0.6c0.1-0.2,0.2-0.4,0.2-0.5c0.1-0.1,0.2-0.3,0.3-0.4
	c0.1-0.2,0.3-0.3,0.5-0.5c0.2-0.2,0.5-0.3,0.7-0.5s0.5-0.2,0.7-0.3c0.2-0.1,0.4-0.1,0.6-0.1C-273.7,413.9-273.6,413.9-273.6,413.9z"
	/>
</svg>
