<svg version="1.1" id="Слой_1" xmlns="http://www.w3.org/2000/svg" xmlns:xlink="http://www.w3.org/1999/xlink" x="0px" y="0px"
	 viewBox="-286 414.9 23 13" style="enable-background:new -286 414.9 23 13;" xml:space="preserve">
<path d="M-263.5,415.8c0.2-0.5,0-0.9-0.8-0.9h-2.5c-0.6,0-0.9,0.3-1.1,0.7c0,0-1.3,3-3.1,4.9c-0.6,0.6-0.8,0.7-1.2,0.7
	c-0.2,0-0.4-0.2-0.4-0.7v-4.8c0-0.6-0.2-0.9-0.7-0.9h-4c-0.4,0-0.6,0.3-0.6,0.5c0,0.6,0.9,0.7,1,2.3v3.5c0,0.8-0.1,0.9-0.5,0.9
	c-0.8,0-2.9-3-4.2-6.4c-0.3-0.6-0.5-0.9-1.1-0.9h-2.5c-0.7,0-0.9,0.3-0.9,0.7c0,0.6,0.8,3.8,4,7.9c2.1,2.8,5,4.4,7.7,4.4
	c1.6,0,1.8-0.3,1.8-0.9v-2.2c0-0.7,0.1-0.8,0.7-0.8c0.4,0,1,0.2,2.5,1.5c1.7,1.6,2,2.4,2.9,2.4h2.5c0.7,0,1.1-0.3,0.9-1
	c-0.2-0.7-1-1.6-2.1-2.8c-0.6-0.7-1.5-1.4-1.7-1.7c-0.4-0.5-0.3-0.7,0-1.1C-266.9,421.3-263.8,417.2-263.5,415.8z"/>
</svg>
